<?xml version="1.0" encoding="UTF-8" standalone="no"?><!DOCTYPE svg PUBLIC "-//W3C//DTD SVG 1.1//EN" "http://www.w3.org/Graphics/SVG/1.1/DTD/svg11.dtd"><svg width="100%" height="100%" viewBox="0 0 50 50" version="1.1" xmlns="http://www.w3.org/2000/svg" xmlns:xlink="http://www.w3.org/1999/xlink" xml:space="preserve" xmlns:serif="http://www.serif.com/" style="fill-rule:evenodd;clip-rule:evenodd;stroke-linejoin:round;stroke-miterlimit:1.41421;"><path d="M43.761,24.889c0,8.859 -2.602,13.692 -6.947,16.907c-3.123,2.312 -7.158,3.441 -11.896,3.441c-4.613,0 -9.09,-1.114 -12.469,-3.971c-3.575,-3.025 -6.21,-7.579 -6.21,-16.324c0,-7.302 1.806,-11.877 5.037,-15.138c3.869,-3.907 9.217,-5.041 13.758,-5.041c4.555,0 8.879,1.057 12.659,4.113c3.581,2.894 6.068,7.966 6.068,16.013Zm-6.677,-15.471c-2.733,-2.293 -5.78,-3.329 -12.05,-3.329c-7.062,0 -10.637,1.586 -13.141,4.328c-2.863,3.136 -4.061,7.548 -4.061,14.495c0,5.707 0.789,11.405 4.23,14.846c2.999,2.998 6.611,4.112 12.895,4.112c5.823,0 9.416,-0.71 12.528,-3.763c3.338,-3.276 4.671,-7.729 4.671,-15.195c0,-7.656 -1.758,-12.712 -5.072,-15.494Z" style="fill:#595757;stroke:#595757;stroke-width:1px;"/><path d="M36.089,16.755l0,0.234c0,0 0.563,0.054 0.923,0.516c0.361,0.461 0.458,1.109 0.058,2.22c-0.447,1.24 -3.494,8.177 -4.036,9.267c-0.286,0.574 -0.49,1.313 -0.552,1.628c-0.026,0.128 -0.102,0.14 -0.14,0c-0.051,-0.182 -0.696,-1.124 -1.023,-1.585c-0.314,-0.442 -2.303,-2.825 -4.331,-5.244c-0.112,-0.133 -0.263,-0.296 -0.397,-0.423c-0.093,-0.079 -0.093,-0.093 0.021,-0.181c0.18,-0.169 0.239,-0.256 0.375,-0.429c2.023,-2.562 3.65,-4.707 3.798,-4.893c0.408,-0.514 0.764,-0.898 0.965,-1.023l0,-0.087l-5.077,0c0.009,-1.476 0.013,-2.722 0.033,-3.171c0.072,-1.642 0.244,-2.334 1.095,-3.3c0.431,-0.49 0.818,-0.739 0.818,-0.739c-0.065,-0.115 -0.09,-0.173 -0.09,-0.173c-0.389,0.205 -1.232,0.248 -2.141,0.248c-0.908,0 -3.862,-0.056 -5.189,-0.056c-1.326,0 -2.162,0.302 -2.782,0.85c-0.589,0.52 -1.211,1.744 -1.268,1.945l0.166,0.109c0.216,-0.231 0.713,-0.656 1.275,-0.843c0.671,-0.224 1.269,-0.289 2.105,-0.289c0.836,0 2.926,0.058 3.546,0.058c0.619,0 1.124,-0.043 1.455,-0.129c0.345,-0.09 0.491,-0.145 0.635,-0.231c0.25,-0.149 0.302,0.029 0.1,0.188c-0.136,0.107 -0.439,0.383 -0.735,0.721c-0.706,0.807 -1.297,1.744 -1.297,3.776c0,0.291 0.001,0.64 0.003,1.038l-6.229,0l0,0.09c0,0 0.519,0.356 1.196,1.179c0.277,0.335 2.196,2.639 4.396,5.317c0.103,0.125 0.329,0.342 0.433,0.469c0.115,0.058 0.072,0.144 0.007,0.165c-0.151,0.191 -0.234,0.251 -0.433,0.497c-2.075,2.585 -4.005,5.1 -4.172,5.355c-0.36,0.547 -0.469,0.694 -0.566,0.9c-0.091,0.192 -0.176,0.306 -0.234,0.047c-0.058,-0.26 -0.151,-0.717 -0.627,-1.784c-0.476,-1.066 -4.354,-9.036 -4.655,-9.657c-0.429,-0.879 -0.304,-1.47 -0.044,-1.844c0.182,-0.263 0.475,-0.433 0.764,-0.497l0,-0.238l-4.958,0l0,0.238c0,0 0.281,0.057 0.439,0.201c0.18,0.164 0.454,0.635 0.62,0.927c0.577,1.009 6.988,14.168 7.272,14.791c0.457,1.005 0.515,1.255 0.515,1.255l0.101,0c0,0 0.676,-1.028 1.705,-2.321c0.315,-0.396 2.024,-2.752 4.072,-5.375c0.149,-0.192 0.309,-0.365 0.408,-0.579c0.056,-0.117 0.128,-0.102 0.096,0.038c-0.022,0.093 -0.037,0.686 -0.037,0.778c0.022,3.741 0.078,7.806 0.102,9.982c0.029,2.667 -0.606,3.475 -1.961,3.475c-0.375,0 -0.75,-0.13 -0.937,-0.282c-0.203,-0.164 -0.299,-0.471 0.16,-0.583c0.451,-0.111 0.85,-0.591 0.859,-1.34c0.01,-0.735 -0.543,-1.498 -1.551,-1.484c-1.081,0.014 -1.838,0.879 -1.838,2.133c0,0.979 0.757,2.68 3.394,2.651c3.114,-0.034 3.902,-2.56 4.012,-3.758c0.086,-0.936 0.072,-1.772 0.072,-3.242c0,-0.979 -0.038,-3.935 -0.084,-6.556c-0.002,-0.178 -0.001,-0.553 -0.023,-0.741c-0.043,-0.208 0.03,-0.234 0.108,-0.05c0.101,0.237 0.283,0.517 0.342,0.589c2.059,2.551 3.685,4.58 3.964,4.936c0.931,1.191 1.285,1.729 1.285,1.729l0.129,0c0,0 0.325,-0.99 0.728,-1.826c0.419,-0.865 5.913,-13.19 6.131,-13.653c0.231,-0.49 0.573,-1.104 0.807,-1.312c0.173,-0.154 0.394,-0.331 0.635,-0.385l0,-0.234l-4.716,0l0,-0.003Zm-7.232,1.031c0.075,0.002 0.2,0.002 0.244,-0.003c0.119,-0.015 0.142,-0.003 0.026,0.108c-0.076,0.072 -0.278,0.266 -0.408,0.414c-0.028,0.033 -0.682,0.812 -1.603,1.968c-0.155,0.195 -0.272,0.336 -0.401,0.566c-0.079,0.166 -0.139,0.154 -0.096,-0.077c0.022,-0.18 0.029,-0.483 0.033,-0.728c0.001,-0.727 0.014,-1.503 0.018,-2.248c0,0 2.039,-0.004 2.187,0Zm-4.457,3.063c-0.11,-0.226 -0.524,-0.759 -0.581,-0.827c-0.965,-1.148 -1.369,-1.638 -1.48,-1.782c-0.094,-0.124 -0.207,-0.27 -0.277,-0.336c-0.109,-0.1 -0.09,-0.151 0.039,-0.133c0.079,0.011 0.227,0.012 0.314,0.015l2.023,0c0.005,0.733 0.016,1.374 0.022,2.248c0,0.317 0.003,0.526 0.026,0.754c0.044,0.229 -0.022,0.194 -0.086,0.061Z" style="fill:#595757;stroke:#595757;stroke-width:1px;"/></svg>